<?xml version="1.0" standalone="no"?>
<!DOCTYPE svg PUBLIC "-//W3C//DTD SVG 20010904//EN"
 "http://www.w3.org/TR/2001/REC-SVG-20010904/DTD/svg10.dtd">
<svg version="1.0" xmlns="http://www.w3.org/2000/svg"
 width="700.000000pt" height="700.000000pt" viewBox="0 0 700.000000 700.000000"
 preserveAspectRatio="xMidYMid meet">
<metadata>
Created by potrace 1.14, written by Peter Selinger 2001-2017
</metadata>
<g transform="translate(0.000000,700.000000) scale(0.100000,-0.100000)"
fill="#000000" stroke="none">
<path d="M3400 6653 c-52 -13 -131 -32 -175 -42 -44 -10 -408 -96 -810 -191
-401 -94 -741 -174 -755 -176 -14 -3 -45 -11 -70 -18 l-45 -13 -1 -691 c-1
-625 1 -692 15 -696 18 -6 445 -104 476 -110 24 -5 622 -142 680 -156 22 -5
83 -19 135 -31 143 -32 237 -54 435 -100 99 -23 196 -42 215 -42 19 0 166 30
325 67 160 37 299 69 310 71 23 5 123 28 240 55 89 21 219 51 370 85 55 12
172 39 260 60 88 20 170 39 182 41 32 6 235 54 254 60 15 4 17 64 15 697 l-1
692 -50 13 c-82 20 -308 74 -333 78 -12 3 -106 25 -207 49 -168 41 -254 61
-295 70 -8 2 -105 24 -215 50 -110 26 -234 55 -275 65 -41 10 -156 37 -255 60
-357 84 -317 79 -425 53z"/>
<path d="M462 6512 c-7 -15 -40 -85 -74 -157 -33 -71 -90 -191 -124 -265 -35
-74 -70 -146 -78 -159 -12 -22 -12 -28 9 -60 12 -20 69 -112 125 -206 57 -93
152 -251 212 -349 60 -98 113 -189 118 -201 5 -12 11 -57 15 -101 3 -43 8 -95
10 -114 3 -19 7 -66 11 -105 3 -38 7 -83 10 -100 2 -16 6 -67 9 -112 4 -46 8
-91 10 -100 2 -10 4 -30 4 -45 1 -16 5 -28 9 -28 6 0 235 163 277 197 6 5 89
65 185 135 l175 127 0 650 c-1 358 -3 652 -5 654 -8 7 -868 367 -877 367 -4 0
-14 -12 -21 -28z"/>
<path d="M6445 6514 c-33 -14 -73 -31 -90 -39 -16 -7 -156 -66 -310 -130 -154
-64 -298 -124 -320 -134 -22 -10 -50 -22 -62 -25 -13 -4 -23 -13 -24 -19 -1
-7 -2 -301 -2 -655 l-2 -643 110 -79 c215 -156 400 -291 415 -303 8 -7 39 -29
68 -49 l52 -38 1 28 c0 15 2 38 4 52 1 14 6 66 10 115 3 50 8 99 10 110 4 18
11 85 20 205 17 205 14 193 73 290 39 65 289 477 389 640 18 30 33 59 33 64 0
6 -61 138 -135 295 -74 157 -140 298 -147 313 -16 34 -18 34 -93 2z"/>
<path d="M1275 4582 c-71 -51 -182 -132 -245 -178 -63 -46 -124 -90 -135 -98
-104 -75 -150 -115 -149 -128 2 -18 12 -130 20 -213 2 -27 6 -59 9 -70 2 -11
7 -56 10 -100 4 -44 8 -91 10 -105 5 -32 12 -97 25 -230 6 -58 13 -125 15
-150 3 -25 7 -67 10 -95 3 -27 7 -66 10 -85 2 -19 7 -66 11 -105 3 -38 7 -81
9 -95 2 -14 6 -54 10 -90 6 -68 16 -84 92 -166 21 -23 68 -75 103 -115 36 -41
88 -99 116 -129 27 -30 104 -116 170 -190 65 -74 121 -137 124 -140 3 -3 63
-70 134 -149 l128 -143 -6 73 c-6 70 -9 95 -21 229 -2 30 -7 89 -11 130 -3 41
-7 80 -7 85 -1 6 209 116 468 245 l470 235 7 40 c3 22 9 58 12 80 4 22 9 51
11 65 25 149 36 207 40 220 2 8 6 33 10 55 3 22 10 65 15 95 16 92 18 104 24
140 3 19 8 47 10 62 3 20 -11 51 -57 123 -34 52 -102 158 -152 235 l-90 139
-55 -5 c-30 -2 -71 -6 -90 -9 -60 -7 -194 -19 -210 -19 -12 1 -140 69 -225
121 -11 7 -27 15 -35 19 -70 34 -88 53 -109 121 -73 229 -104 319 -114 329 -7
6 -48 19 -92 29 -44 9 -93 20 -110 24 -27 7 -43 -2 -160 -87z"/>
<path d="M5520 4658 c-41 -10 -91 -21 -110 -24 -19 -3 -39 -10 -45 -15 -5 -5
-39 -98 -75 -207 l-65 -197 -170 -97 c-108 -62 -176 -96 -189 -93 -12 2 -50 7
-86 11 -67 6 -81 8 -190 18 l-66 6 -19 -33 c-10 -17 -79 -123 -152 -234 l-133
-202 16 -88 c8 -48 22 -126 30 -173 8 -47 17 -103 20 -125 3 -22 7 -47 10 -55
3 -8 8 -31 10 -50 3 -19 15 -93 27 -165 l22 -130 470 -235 c259 -129 469 -240
468 -245 -1 -6 -4 -44 -7 -85 -4 -41 -8 -95 -11 -120 -2 -25 -7 -74 -9 -110
-3 -36 -8 -96 -12 -133 l-5 -69 83 94 c46 51 88 98 93 104 29 32 152 169 165
184 15 18 130 145 165 184 11 12 49 55 85 96 72 81 75 84 175 196 94 103 93
102 100 170 5 55 7 79 20 189 2 22 7 67 10 100 3 33 8 74 10 90 2 17 7 64 10
105 3 41 8 86 10 100 4 25 10 78 20 180 6 68 14 142 20 195 2 22 7 67 10 100
4 33 8 74 10 92 3 17 7 63 11 101 3 39 7 79 8 89 3 16 -113 111 -244 199 -35
23 -241 174 -270 197 -8 7 -44 33 -80 58 l-65 45 -75 -18z"/>
<path d="M4205 4359 c-66 -16 -131 -31 -145 -34 -14 -2 -40 -9 -57 -14 -18 -5
-33 -8 -33 -6 0 3 -11 0 -25 -5 -14 -5 -36 -12 -48 -14 -12 -2 -96 -21 -187
-42 -91 -22 -187 -38 -215 -38 -27 1 -218 41 -423 88 -206 48 -380 86 -387 84
-12 -3 -12 -8 0 -33 7 -16 59 -151 115 -300 56 -148 115 -304 132 -345 37 -93
36 -83 8 -235 -5 -27 -12 -63 -15 -80 -2 -16 -17 -97 -31 -180 -14 -82 -28
-159 -29 -170 -2 -11 -13 -72 -24 -135 -11 -63 -23 -131 -26 -150 -3 -19 -8
-42 -10 -50 -2 -8 -6 -31 -9 -50 -13 -87 -18 -118 -27 -157 -5 -22 -11 -63
-15 -90 l-5 -48 744 0 c410 0 748 3 752 7 4 3 0 48 -9 100 -9 51 -19 107 -21
123 -3 17 -8 41 -10 55 -3 14 -7 36 -10 50 -2 14 -8 52 -14 85 -6 33 -13 76
-16 95 -3 19 -8 46 -10 60 -11 51 -16 79 -45 250 -29 170 -34 199 -45 258 -3
15 -8 43 -11 62 -3 19 -9 51 -13 71 -7 31 7 76 116 360 114 297 175 461 170
458 -1 -1 -56 -14 -122 -30z"/>
<path d="M2245 2405 c-277 -138 -350 -178 -348 -192 1 -10 4 -56 8 -103 3 -47
8 -101 10 -120 2 -19 6 -66 10 -105 5 -69 12 -151 20 -230 2 -22 7 -78 10
-124 4 -47 9 -92 10 -100 2 -9 4 -37 4 -62 1 -43 4 -49 49 -83 26 -20 56 -43
67 -52 11 -8 54 -40 95 -72 41 -31 77 -59 80 -62 3 -3 21 -17 40 -30 19 -13
37 -27 40 -30 15 -19 171 -130 182 -130 12 0 80 22 123 41 11 4 137 51 280
104 143 53 311 115 373 138 l112 42 0 263 0 263 -212 103 c-222 108 -281 135
-513 243 -77 36 -143 67 -146 69 -4 2 -3 21 1 41 5 21 12 58 15 83 4 25 13 79
21 120 17 90 27 160 22 159 -2 0 -160 -79 -353 -174z"/>
<path d="M4404 2533 c4 -26 9 -55 11 -63 2 -8 6 -31 9 -50 3 -19 14 -82 25
-138 l19 -104 -92 -43 c-50 -23 -113 -52 -141 -65 -66 -30 -238 -112 -462
-221 l-183 -89 0 -263 0 -262 233 -86 c542 -202 644 -239 655 -239 11 0 285
200 302 221 3 3 32 25 65 49 33 24 62 46 65 49 3 3 31 26 63 50 55 42 57 45
58 90 0 25 2 55 4 66 4 21 13 116 20 225 3 36 7 83 10 105 2 22 7 78 11 125 3
47 7 96 9 109 2 13 7 67 11 120 4 53 8 99 11 104 2 4 -139 77 -314 163 -175
86 -335 165 -356 176 l-39 19 6 -48z"/>
<path d="M3315 1011 c-99 -37 -286 -107 -416 -155 l-236 -87 60 -57 c34 -31
71 -66 82 -77 12 -11 77 -72 145 -135 67 -63 136 -128 153 -145 l30 -30 367 0
367 0 64 62 c35 33 84 80 109 103 190 176 290 273 290 280 0 4 -11 11 -25 14
-26 7 -441 158 -480 175 -26 12 -325 121 -328 120 -1 0 -83 -31 -182 -68z"/>
</g>
</svg>
