<?xml version="1.0" encoding="UTF-8" standalone="no"?>
<!-- Created with Inkscape (http://www.inkscape.org/) -->

<svg
   width="4000"
   height="4000"
   viewBox="0 0 1058.3333 1058.3333"
   version="1.1"
   id="svg694"
   inkscape:version="1.2.2 (b0a8486, 2022-12-01)"
   sodipodi:docname="panther-White-01.svg"
   xmlns:inkscape="http://www.inkscape.org/namespaces/inkscape"
   xmlns:sodipodi="http://sodipodi.sourceforge.net/DTD/sodipodi-0.dtd"
   xmlns="http://www.w3.org/2000/svg"
   xmlns:svg="http://www.w3.org/2000/svg">
  <sodipodi:namedview
     id="namedview696"
     pagecolor="#505050"
     bordercolor="#eeeeee"
     borderopacity="1"
     inkscape:showpageshadow="0"
     inkscape:pageopacity="0"
     inkscape:pagecheckerboard="0"
     inkscape:deskcolor="#505050"
     inkscape:document-units="px"
     showgrid="false"
     inkscape:zoom="0.069360024"
     inkscape:cx="872.26036"
     inkscape:cy="3532.294"
     inkscape:window-width="1440"
     inkscape:window-height="872"
     inkscape:window-x="0"
     inkscape:window-y="1308"
     inkscape:window-maximized="0"
     inkscape:current-layer="layer1" />
  <defs
     id="defs691" />
  <g
     inkscape:label="Layer 1"
     inkscape:groupmode="layer"
     id="layer1">
    <path
       d="m 399.45922,634.99024 20.78547,-119.2583 -46.36388,-71.32096 -54.8362,5.62402 -50.81793,-28.98348 -19.793,-61.42851 -36.26162,-8.28676 -99.83647,72.71689 22.5203,215.54444 129.94958,145.36923 -6.97958,-80.13221 z M 72.249311,68.747374 26.458306,165.71128 99.094521,285.39723 109.3259,392.75389 206.18495,322.23175 V 124.96339 Z M 393.67382,668.03237 286.3817,720.92398 l 12.06301,137.98617 82.11715,62.8164 135.08138,-50.1078 v -79.04296 c -40.62687,-21.13244 -132.59615,-63.5829 -132.59615,-63.5829 z m 135.4929,227.13948 -126.76235,46.9367 72.01489,67.27845 h 109.48685 l 72.01486,-67.27845 z m -0.0242,-499.20653 295.97521,-67.56894 V 118.61317 L 529.14248,48.946294 233.20766,118.61317 v 209.78321 z m 0.016,27.91838 -125.58428,-28.8221 44.71781,117.21685 -33.12282,189.98218 H 643.14775 L 610.033,512.27845 654.75084,395.0616 Z m 271.34891,280.9509 -6.9796,80.13221 129.9496,-145.36923 22.5203,-215.54444 -99.8365,-72.71689 -36.2616,8.28676 -19.793,61.42851 -50.8179,28.98348 -54.83625,-5.62402 -46.36388,71.32096 20.78546,119.2583 z m 51.6409,-579.87121 v 197.26836 l 96.859,70.52214 10.2314,-107.35666 72.63627,-119.68595 -45.79104,-96.963906 z m -309.46636,667.6124 c 40.61885,-21.13244 132.59616,-63.5829 132.59616,-63.5829 l -10.62673,-60.96052 107.29213,52.89161 -12.063,137.98617 -82.11717,62.8164 -135.08139,-50.1078 v -79.04296"
       style="fill:#ffffff;fill-opacity:1;fill-rule:nonzero;stroke:none;stroke-width:0.080689"
       id="path174" />
  </g>
</svg>
